<svg xmlns="http://www.w3.org/2000/svg" version="1.1" xmlns:xlink="http://www.w3.org/1999/xlink" xmlns:svgjs="http://svgjs.dev/svgjs" width="1600" height="900" preserveAspectRatio="none" viewBox="0 0 1600 900"><g clip-path="url(&quot;#SvgjsClipPath1105&quot;)" fill="none"><rect width="1600" height="900" x="0" y="0" fill="rgba(34, 40, 49, 1)"></rect><circle r="150" cx="-141.39" cy="137.72" stroke="#393e46" stroke-opacity="1" stroke-width="2"></circle><circle r="150" cx="516.51" cy="679.26" stroke="#393e46" stroke-opacity="1" stroke-width="2"></circle><circle r="297.24" cx="806.67" cy="812.48" stroke="#393e46" stroke-opacity="1" stroke-width="2"></circle><circle r="198.18" cx="1022.32" cy="680.49" stroke="#393e46" stroke-opacity="1" stroke-width="2"></circle><circle r="252.965" cx="775.03" cy="554.23" stroke="#393e46" stroke-opacity="1" stroke-width="2"></circle><circle r="127.85" cx="1024.36" cy="279.88" stroke="#393e46" stroke-opacity="1" stroke-width="2"></circle><circle r="244.915" cx="93.77" cy="224.31" stroke="#393e46" stroke-opacity="1" stroke-width="2"></circle><circle r="284.85" cx="457.86" cy="269.91" stroke="#393e46" stroke-opacity="1" stroke-width="2"></circle><circle r="202.985" cx="792.69" cy="35.96" stroke="#393e46" stroke-opacity="1" stroke-width="2"></circle><circle r="162.12" cx="1427.96" cy="532.58" stroke="#393e46" stroke-opacity="1" stroke-width="2"></circle><circle r="245.91" cx="878.66" cy="93.85" stroke="#393e46" stroke-opacity="1" stroke-width="2"></circle><circle r="198.955" cx="950.28" cy="830.07" stroke="#393e46" stroke-opacity="1" stroke-width="2"></circle><circle r="202.1" cx="1414.92" cy="362.08" stroke="#393e46" stroke-opacity="1" stroke-width="2"></circle><circle r="223.19" cx="1494.7" cy="852.75" stroke="#393e46" stroke-opacity="1" stroke-width="2"></circle><circle r="154.68" cx="233.68" cy="570.23" stroke="#393e46" stroke-opacity="1" stroke-width="2"></circle><circle r="217.31" cx="1423.21" cy="297.52" stroke="#393e46" stroke-opacity="1" stroke-width="2"></circle><circle r="181.99" cx="302.31" cy="353.25" stroke="#393e46" stroke-opacity="1" stroke-width="2"></circle><circle r="259.455" cx="756.02" cy="791.7" stroke="#393e46" stroke-opacity="1" stroke-width="2"></circle><circle r="206.11" cx="89.35" cy="215.97" stroke="#393e46" stroke-opacity="1" stroke-width="2"></circle><circle r="97.65" cx="895.94" cy="831.72" stroke="#393e46" stroke-opacity="1" stroke-width="2"></circle><circle r="278.245" cx="39.71" cy="863.84" stroke="#393e46" stroke-opacity="1" stroke-width="2"></circle><circle r="86.015" cx="787.33" cy="736.49" stroke="#393e46" stroke-opacity="1" stroke-width="2"></circle><circle r="75.845" cx="833.74" cy="247.08" stroke="#393e46" stroke-opacity="1" stroke-width="2"></circle><circle r="99.25" cx="638.49" cy="377.6" stroke="#393e46" stroke-opacity="1" stroke-width="2"></circle><circle r="192.475" cx="143.38" cy="663.28" stroke="#393e46" stroke-opacity="1" stroke-width="2"></circle><circle r="194.905" cx="1480.52" cy="733.71" stroke="#393e46" stroke-opacity="1" stroke-width="2"></circle><circle r="107.665" cx="1149.92" cy="337.84" stroke="#393e46" stroke-opacity="1" stroke-width="2"></circle><circle r="188.65" cx="60.22" cy="743.64" stroke="#393e46" stroke-opacity="1" stroke-width="2"></circle><circle r="194.335" cx="705.45" cy="255.53" stroke="#393e46" stroke-opacity="1" stroke-width="2"></circle><circle r="76.43" cx="1096.38" cy="659.3" stroke="#393e46" stroke-opacity="1" stroke-width="2"></circle></g><defs><clipPath id="SvgjsClipPath1105"><rect width="1600" height="900" x="0" y="0"></rect></clipPath></defs></svg>